# xmcd
#
# Track frame offsets:
#	150
#	12425
#	23500
#	29800
#	41437
#	53762
#	66400
#	75750
#	88262
#	98037
#	111050
#	121637
#
# Disc length: 1736 seconds
#
# Revision: 2
# Processed by: cddbd v1.4PL0 Copyright (c) Steve Scherf et al.
# Submitted via: audiograbber 1.80
#
DISCID=8a06c60c
DTITLE=Various Artist - Country Explosion Vol 2
DYEAR=1900
DGENRE=
TTITLE0=Hank Locklin - Queen Of Hearts
TTITLE1=Sanford Clark - Big Time Day Tomorrow
TTITLE2=Lee Conway - People
TTITLE3=Patsy Cline - Let The Teardrops Fall
TTITLE4=Faron Young - Country Girl
TTITLE5=Bobby Bare - When Love Is gone
TTITLE6=Country Deputies - Red Haired Boy
TTITLE7=Patsy Cline - Fingerprints
TTITLE8=Buck Owen - There Goes My love
TTITLE9=Bobby Bare - I took A Memory To Lunch
TTITLE10=Jordanaires - You're Wasting Your Time Girl
TTITLE11=George Jones - That's The way I Feel
EXTD=
EXTT0=
EXTT1=
EXTT2=
EXTT3=
EXTT4=
EXTT5=
EXTT6=
EXTT7=
EXTT8=
EXTT9=
EXTT10=
EXTT11=
PLAYORDER=
